<?xml version="1.0" encoding="UTF-8" standalone="no"?>
<!-- Created with Inkscape (http://www.inkscape.org/) -->

<svg
   width="161mm"
   height="214mm"
   viewBox="0 0 161 214"
   version="1.1"
   id="svg5687"
   inkscape:version="1.2.2 (732a01da63, 2022-12-09)"
   sodipodi:docname="icon.svg"
   xmlns:inkscape="http://www.inkscape.org/namespaces/inkscape"
   xmlns:sodipodi="http://sodipodi.sourceforge.net/DTD/sodipodi-0.dtd"
   xmlns="http://www.w3.org/2000/svg"
   xmlns:svg="http://www.w3.org/2000/svg">
  <sodipodi:namedview
     id="namedview5689"
     pagecolor="#ffffff"
     bordercolor="#000000"
     borderopacity="0.25"
     inkscape:showpageshadow="2"
     inkscape:pageopacity="0.0"
     inkscape:pagecheckerboard="0"
     inkscape:deskcolor="#d1d1d1"
     inkscape:document-units="mm"
     showgrid="false"
     inkscape:zoom="0.46769781"
     inkscape:cx="397.69269"
     inkscape:cy="466.11294"
     inkscape:window-width="1366"
     inkscape:window-height="705"
     inkscape:window-x="-8"
     inkscape:window-y="-8"
     inkscape:window-maximized="1"
     inkscape:current-layer="layer1" />
  <defs
     id="defs5684" />
  <g
     inkscape:label="Layer 1"
     inkscape:groupmode="layer"
     id="layer1">
    <g
       style="fill:#ff6600"
       id="g158"
       transform="matrix(0.44962087,0,0,0.44962087,-24.93664,1.0864417)">
      <g
         id="g144"
         style="fill:#ff6600">
	<path
   d="M 362.965,21.384 H 289.62 L 286.638,7.99 C 285.614,3.323 281.467,0 276.685,0 h -82.618 c -4.782,0 -8.913,3.323 -9.953,7.99 l -2.967,13.394 h -73.36 c -26.835,0 -48.654,21.827 -48.654,48.662 v 352.06 c 0,26.835 21.819,48.662 48.654,48.662 h 255.179 c 26.835,0 48.67,-21.827 48.67,-48.662 V 70.046 C 411.635,43.211 389.8,21.384 362.965,21.384 Z m 16.866,400.721 c 0,9.295 -7.563,16.858 -16.866,16.858 H 107.786 c -9.287,0 -16.85,-7.563 -16.85,-16.858 V 70.046 c 0,-9.295 7.563,-16.857 16.85,-16.857 h 66.294 l -1.692,7.609 c -0.684,3.02 0.062,6.188 1.988,8.596 1.94,2.415 4.876,3.82 7.965,3.82 h 106.082 c 3.091,0 6.026,-1.405 7.951,-3.82 1.942,-2.415 2.687,-5.575 2.004,-8.596 l -1.692,-7.609 h 66.279 c 9.303,0 16.866,7.563 16.866,16.857 z"
   id="path132"
   style="fill:#ff6600" />

	<path
   d="m 170.835,188.426 h 43.249 l -10.279,-7.019 c -14.506,-9.899 -18.232,-29.693 -8.325,-44.197 9.893,-14.489 29.693,-18.239 44.197,-8.324 l 1.694,1.157 v -12.136 c 0,-7.866 -6.383,-14.248 -14.242,-14.248 h -56.294 c -7.857,0 -14.24,6.383 -14.24,14.248 v 56.271 c 0,7.867 6.383,14.248 14.24,14.248 z"
   id="path134"
   style="fill:#ff6600" />

	<path
   d="m 303.256,110.313 -49.85,47.194 -22.704,-15.49 c -7.221,-4.962 -17.13,-3.083 -22.099,4.162 -4.954,7.251 -3.09,17.144 4.178,22.098 l 33.28,22.727 c 2.718,1.864 5.839,2.772 8.961,2.772 3.96,0 7.888,-1.474 10.933,-4.356 l 59.167,-56.014 c 6.382,-6.033 6.645,-16.104 0.62,-22.479 -6.056,-6.375 -16.105,-6.647 -22.486,-0.614 z"
   id="path136"
   style="fill:#ff6600" />

	<path
   d="M 170.835,297.669 H 214.1 l -10.295,-7.027 c -14.506,-9.901 -18.232,-29.693 -8.325,-44.197 9.893,-14.498 29.693,-18.248 44.197,-8.325 l 1.694,1.158 v -12.136 c 0,-7.865 -6.383,-14.248 -14.242,-14.248 h -56.294 c -7.857,0 -14.24,6.383 -14.24,14.248 v 56.279 c 0,7.865 6.383,14.248 14.24,14.248 z"
   id="path138"
   style="fill:#ff6600" />

	<path
   d="m 303.256,219.555 -49.85,47.186 -22.704,-15.49 c -7.221,-4.97 -17.13,-3.098 -22.099,4.162 -4.954,7.253 -3.09,17.144 4.178,22.099 l 33.28,22.727 c 2.718,1.864 5.839,2.772 8.961,2.772 3.96,0 7.888,-1.476 10.933,-4.356 l 59.167,-56.007 c 6.382,-6.033 6.645,-16.096 0.62,-22.479 -6.056,-6.376 -16.105,-6.64 -22.486,-0.614 z"
   id="path140"
   style="fill:#ff6600" />

	<path
   d="m 227.129,322.135 h -56.294 c -7.857,0 -14.24,6.383 -14.24,14.248 v 56.271 c 0,7.865 6.383,14.248 14.24,14.248 h 56.294 c 7.859,0 14.242,-6.383 14.242,-14.248 v -56.271 c 0,-7.865 -6.383,-14.248 -14.242,-14.248 z"
   id="path142"
   style="fill:#ff6600" />

</g>
    </g>
  </g>
</svg>
